HIERARCHY
ROOT Hip
{
	OFFSET 1.371367 -1.986324 0.221308
	CHANNELS 6 Xposition Yposition Zposition Xrotation Yrotation Zrotation
	JOINT LowerSpine
	{
		OFFSET -0.000000 0.154691 0.259874
		CHANNELS 6 Xposition Yposition Zposition Xrotation Yrotation Zrotation
		JOINT MiddleSpine
		{
			OFFSET 0.000000 -0.011152 0.237154
			CHANNELS 3 Xrotation Yrotation Zrotation
			JOINT Chest
			{
				OFFSET 0.000000 0.058786 0.293449
				CHANNELS 3 Xrotation Yrotation Zrotation
				JOINT Neck
				{
					OFFSET 0.000000 0.012376 0.661279
					CHANNELS 6 Xposition Yposition Zposition Xrotation Yrotation Zrotation
					JOINT Head
					{
						OFFSET -0.000003 -0.101572 0.373433
						CHANNELS 3 Xrotation Yrotation Zrotation
						End Site
						{
							OFFSET 0.000000 -0.001601 0.053629
						}
					}
				}
				JOINT LClavicle
				{
					OFFSET 0.060085 -0.196776 0.638167
					CHANNELS 6 Xposition Yposition Zposition Xrotation Yrotation Zrotation
					JOINT LShoulder
					{
						OFFSET 0.351028 0.148114 0.091535
						CHANNELS 3 Xrotation Yrotation Zrotation
						JOINT LForearm
						{
							OFFSET 0.828501 0.007178 -0.002937
							CHANNELS 3 Xrotation Yrotation Zrotation
							JOINT LHand
							{
								OFFSET 0.691144 0.004140 0.002005
								CHANNELS 3 Xrotation Yrotation Zrotation
								JOINT LFinger1
								{
									OFFSET 0.267868 -0.074399 0.023428
									CHANNELS 6 Xposition Yposition Zposition Xrotation Yrotation Zrotation
									JOINT LFinger11
									{
										OFFSET 0.100195 -0.017654 -0.024432
										CHANNELS 3 Xrotation Yrotation Zrotation
										JOINT LFinger12
										{
											OFFSET 0.068400 -0.012056 -0.016682
											CHANNELS 3 Xrotation Yrotation Zrotation
											End Site
											{
												OFFSET 0.050801 -0.008241 -0.015164
											}
										}
									}
								}
								JOINT LFinger2
								{
									OFFSET 0.271867 -0.006477 0.027054
									CHANNELS 6 Xposition Yposition Zposition Xrotation Yrotation Zrotation
									JOINT LFinger21
									{
										OFFSET 0.123886 0.000730 0.000345
										CHANNELS 3 Xrotation Yrotation Zrotation
										JOINT LFinger22
										{
											OFFSET 0.068670 0.000417 0.000210
											CHANNELS 3 Xrotation Yrotation Zrotation
											End Site
											{
												OFFSET 0.053519 -0.000073 -0.003780
											}
										}
									}
								}
								JOINT LFinger3
								{
									OFFSET 0.257651 0.060955 0.018054
									CHANNELS 6 Xposition Yposition Zposition Xrotation Yrotation Zrotation
									JOINT LFinger31
									{
										OFFSET 0.112414 0.007039 -0.005692
										CHANNELS 3 Xrotation Yrotation Zrotation
										JOINT LFinger32
										{
											OFFSET 0.064060 0.004023 -0.003222
											CHANNELS 3 Xrotation Yrotation Zrotation
											End Site
											{
												OFFSET 0.053193 0.002514 -0.006540
											}
										}
									}
								}
								JOINT LFinger4
								{
									OFFSET 0.239090 0.105269 -0.018169
									CHANNELS 6 Xposition Yposition Zposition Xrotation Yrotation Zrotation
									JOINT LFinger41
									{
										OFFSET 0.069146 0.019087 -0.014420
										CHANNELS 3 Xrotation Yrotation Zrotation
										JOINT LFinger42
										{
											OFFSET 0.050706 0.014006 -0.010559
											CHANNELS 3 Xrotation Yrotation Zrotation
											End Site
											{
												OFFSET 0.050514 0.011590 -0.013879
											}
										}
									}
								}
								JOINT LFinger0
								{
									OFFSET 0.055413 -0.042009 -0.041941
									CHANNELS 6 Xposition Yposition Zposition Xrotation Yrotation Zrotation
									JOINT LFinger01
									{
										OFFSET 0.103169 -0.077785 -0.033880
										CHANNELS 3 Xrotation Yrotation Zrotation
										JOINT LFinger02
										{
											OFFSET 0.067934 -0.048944 -0.024309
											CHANNELS 3 Xrotation Yrotation Zrotation
											End Site
											{
												OFFSET 0.042585 -0.029159 -0.014660
											}
										}
									}
								}
							}
						}
					}
				}
				JOINT RClavicle
				{
					OFFSET -0.060085 -0.196776 0.638167
					CHANNELS 6 Xposition Yposition Zposition Xrotation Yrotation Zrotation
					JOINT RShoulder
					{
						OFFSET -0.351089 0.148140 0.091551
						CHANNELS 3 Xrotation Yrotation Zrotation
						JOINT RForearm
						{
							OFFSET -0.828500 0.007180 -0.002938
							CHANNELS 3 Xrotation Yrotation Zrotation
							JOINT RHand
							{
								OFFSET -0.691143 0.004141 0.002005
								CHANNELS 3 Xrotation Yrotation Zrotation
								JOINT RFinger1
								{
									OFFSET -0.267870 -0.074399 0.023431
									CHANNELS 6 Xposition Yposition Zposition Xrotation Yrotation Zrotation
									JOINT RFinger11
									{
										OFFSET -0.100195 -0.017654 -0.024433
										CHANNELS 3 Xrotation Yrotation Zrotation
										JOINT RFinger12
										{
											OFFSET -0.068401 -0.012057 -0.016688
											CHANNELS 3 Xrotation Yrotation Zrotation
											End Site
											{
												OFFSET -0.050801 -0.008241 -0.015164
											}
										}
									}
								}
								JOINT RFinger2
								{
									OFFSET -0.271866 -0.006479 0.027054
									CHANNELS 6 Xposition Yposition Zposition Xrotation Yrotation Zrotation
									JOINT RFinger21
									{
										OFFSET -0.123886 0.000731 0.000348
										CHANNELS 3 Xrotation Yrotation Zrotation
										JOINT RFinger22
										{
											OFFSET -0.068670 0.000420 0.000210
											CHANNELS 3 Xrotation Yrotation Zrotation
											End Site
											{
												OFFSET -0.053519 -0.000073 -0.003780
											}
										}
									}
								}
								JOINT RFinger3
								{
									OFFSET -0.257650 0.060956 0.018057
									CHANNELS 6 Xposition Yposition Zposition Xrotation Yrotation Zrotation
									JOINT RFinger31
									{
										OFFSET -0.112414 0.007039 -0.005693
										CHANNELS 3 Xrotation Yrotation Zrotation
										JOINT RFinger32
										{
											OFFSET -0.064061 0.004024 -0.003223
											CHANNELS 3 Xrotation Yrotation Zrotation
											End Site
											{
												OFFSET -0.053193 0.002514 -0.006540
											}
										}
									}
								}
								JOINT RFinger4
								{
									OFFSET -0.239089 0.105269 -0.018169
									CHANNELS 6 Xposition Yposition Zposition Xrotation Yrotation Zrotation
									JOINT RFinger41
									{
										OFFSET -0.069146 0.019088 -0.014420
										CHANNELS 3 Xrotation Yrotation Zrotation
										JOINT RFinger42
										{
											OFFSET -0.050705 0.014006 -0.010556
											CHANNELS 3 Xrotation Yrotation Zrotation
											End Site
											{
												OFFSET -0.050514 0.011590 -0.013879
											}
										}
									}
								}
								JOINT RFinger0
								{
									OFFSET -0.055412 -0.042005 -0.041938
									CHANNELS 6 Xposition Yposition Zposition Xrotation Yrotation Zrotation
									JOINT RFinger01
									{
										OFFSET -0.103169 -0.077787 -0.033886
										CHANNELS 3 Xrotation Yrotation Zrotation
										JOINT RFinger02
										{
											OFFSET -0.067934 -0.048944 -0.024306
											CHANNELS 3 Xrotation Yrotation Zrotation
											End Site
											{
												OFFSET -0.042585 -0.029159 -0.014660
											}
										}
									}
								}
							}
						}
					}
				}
			}
		}
	}
	JOINT RThigh
	{
		OFFSET -0.307261 0.025205 0.117468
		CHANNELS 6 Xposition Yposition Zposition Xrotation Yrotation Zrotation
		JOINT RShin
		{
			OFFSET -0.022246 0.000001 -1.209169
			CHANNELS 3 Xrotation Yrotation Zrotation
			JOINT RFoot
			{
				OFFSET -0.000000 0.000001 -1.187332
				CHANNELS 3 Xrotation Yrotation Zrotation
				JOINT RToe
				{
					OFFSET -0.000000 -0.272887 -0.130497
					CHANNELS 3 Xrotation Yrotation Zrotation
					End Site
					{
						OFFSET 0.000000 -0.053653 0.000000
					}
				}
			}
		}
	}
	JOINT LThigh
	{
		OFFSET 0.307258 0.025206 0.117477
		CHANNELS 6 Xposition Yposition Zposition Xrotation Yrotation Zrotation
		JOINT LShin
		{
			OFFSET 0.022246 0.000000 -1.209177
			CHANNELS 3 Xrotation Yrotation Zrotation
			JOINT LFoot
			{
				OFFSET -0.000000 0.000001 -1.187332
				CHANNELS 3 Xrotation Yrotation Zrotation
				JOINT LToe
				{
					OFFSET 0.000000 -0.272891 -0.130500
					CHANNELS 3 Xrotation Yrotation Zrotation
					End Site
					{
						OFFSET 0.000000 -0.053653 0.000000
					}
				}
			}
		}
	}
}
MOTION
Frames: 4
Frame Time: 0.041667
1.049344 1.292991 2.303661 -1.528460 -11.623830 272.452476 0.000000 0.154692 0.259874 0.008997 0.006043 0.006371 -1.134575 1.791175 0.834996 -5.935119 5.044563 2.319409 0.000000 0.012377 0.661279 2.256951 0.811873 0.196026 0.614744 -1.428574 -0.039308 0.060085 -0.196775 0.638167 -0.000032 9.075839 0.000027 27.840903 41.643530 -16.003265 0.012488 0.000711 -1.197104 -0.000932 0.002043 -0.000998 0.267866 -0.074399 0.023428 0.000004 -0.000001 -0.000017 -0.000007 -0.000001 -0.000010 -0.000001 -0.000005 0.000012 0.271865 -0.006477 0.027053 0.000001 -0.000002 -0.000012 -0.000003 -0.000006 0.000015 0.000001 -0.000003 -0.000012 0.257650 0.060955 0.018055 -0.000000 -0.000003 -0.000011 0.000001 0.000004 0.000000 0.000004 -0.000004 -0.000001 0.239090 0.105268 -0.018169 0.000000 -0.000015 -0.000018 -0.000006 0.000006 -0.000006 -0.000011 0.000014 -0.000008 0.055412 -0.042008 -0.041941 0.000004 -0.000022 -0.000018 -0.000004 0.000008 -0.000005 -0.000016 0.000002 -0.000006 -0.060085 -0.196775 0.638167 0.000029 -13.612907 0.000037 66.935068 -36.067494 53.690116 0.095615 0.015971 34.453281 -0.000047 0.000224 0.005751 -0.267871 -0.074398 0.023431 0.000008 -0.000008 -0.000028 -0.000022 0.000053 -0.000064 -0.000013 -0.000001 -0.000045 -0.271866 -0.006479 0.027054 -0.000006 -0.000018 -0.000046 -0.000004 -0.000000 -0.000038 -0.000003 -0.000019 0.000002 -0.257650 0.060955 0.018057 -0.000008 -0.000014 -0.000025 -0.000004 -0.000006 0.000011 -0.000002 -0.000000 0.000015 -0.239089 0.105269 -0.018169 0.000002 -0.000012 -0.000044 -0.000016 0.000010 -0.000025 0.000009 -0.000023 -0.000006 -0.055412 -0.042005 -0.041939 -0.000005 -0.000008 -0.000039 0.000031 -0.000013 0.000036 0.000038 -0.000062 0.000020 -0.319659 0.044710 0.210852 -21.100427 2.128653 -3.714020 19.562668 -0.000018 -0.000142 1.292171 -3.532730 7.588568 -0.804175 -0.000279 -0.000281 0.331811 -0.097336 0.119498 -23.749362 -19.852537 4.995376 14.462007 -0.000058 -0.000003 6.756112 -1.980855 4.857008 -0.196909 -0.000020 -0.000021 
1.058911 1.218864 2.291585 0.627856 -12.620226 281.025511 0.000000 0.154692 0.259874 0.010560 0.006561 0.006921 -0.998417 1.834771 0.848695 -5.832856 5.041507 2.185141 0.000000 0.012377 0.661279 1.941223 0.649499 0.157154 0.468495 -1.576808 -0.044808 0.060085 -0.196775 0.638168 -0.000032 8.918119 0.000041 29.541620 38.448600 -23.392023 0.007749 0.000446 0.449150 -0.001052 0.002008 -0.000998 0.267866 -0.074399 0.023428 0.000002 -0.000003 -0.000017 -0.000003 -0.000001 -0.000012 -0.000000 -0.000004 0.000013 0.271865 -0.006478 0.027053 0.000003 -0.000004 -0.000013 -0.000000 -0.000003 0.000014 -0.000000 -0.000004 -0.000012 0.257650 0.060955 0.018055 -0.000001 -0.000003 -0.000011 0.000000 0.000005 -0.000002 0.000004 -0.000001 -0.000003 0.239089 0.105268 -0.018169 -0.000002 -0.000012 -0.000024 -0.000007 0.000003 -0.000006 -0.000014 0.000012 -0.000005 0.055412 -0.042008 -0.041941 0.000003 -0.000019 -0.000018 -0.000003 0.000009 -0.000001 -0.000016 -0.000000 -0.000003 -0.060085 -0.196775 0.638168 0.000014 -13.491328 0.000043 67.210325 -36.136345 53.195224 0.102227 0.019197 37.050392 -0.000041 0.000232 0.005965 -0.267871 -0.074398 0.023431 0.000010 -0.000008 -0.000030 -0.000021 0.000053 -0.000067 -0.000009 -0.000002 -0.000045 -0.271865 -0.006479 0.027054 -0.000003 -0.000018 -0.000047 -0.000007 -0.000002 -0.000039 -0.000003 -0.000020 -0.000000 -0.257650 0.060955 0.018057 -0.000007 -0.000015 -0.000025 0.000001 -0.000006 0.000011 -0.000002 -0.000004 0.000012 -0.239089 0.105269 -0.018169 0.000009 -0.000011 -0.000046 -0.000007 0.000009 -0.000025 0.000009 -0.000023 -0.000008 -0.055412 -0.042005 -0.041939 -0.000002 -0.000009 -0.000040 0.000027 -0.000019 0.000044 0.000037 -0.000065 0.000018 -0.319659 0.044710 0.210853 -23.475498 3.634324 -3.514623 23.781170 -0.000025 -0.000140 0.302046 -2.720844 5.717194 -2.494243 -0.000275 -0.000285 0.332045 -0.099898 0.116564 -29.595906 -20.513015 4.209489 14.102526 -0.000058 -0.000006 6.611684 -2.107751 5.149372 0.000002 -0.000020 -0.000021 
1.058618 1.147407 2.282679 3.374354 -13.326670 289.630675 0.000000 0.154692 0.259874 0.013933 0.007165 0.007558 -0.850414 1.884765 0.869385 -5.833268 5.045125 1.943711 0.000000 0.012377 0.661279 2.009154 0.666197 0.160957 0.314155 -1.718575 -0.050633 0.060085 -0.196775 0.638167 -0.000012 8.754296 0.000038 30.513631 35.279768 -29.864486 0.005764 -0.000993 1.154020 -0.001186 0.001974 -0.000989 0.267867 -0.074399 0.023428 0.000006 0.000007 -0.000017 -0.000006 0.000003 -0.000015 -0.000003 -0.000006 0.000014 0.271865 -0.006477 0.027053 0.000003 0.000002 -0.000011 -0.000001 0.000001 0.000014 0.000001 -0.000002 -0.000011 0.257650 0.060955 0.018055 -0.000001 -0.000000 -0.000010 0.000001 0.000003 -0.000003 0.000003 -0.000008 -0.000001 0.239090 0.105268 -0.018169 -0.000000 -0.000009 -0.000019 -0.000006 0.000002 -0.000005 -0.000012 0.000010 -0.000007 0.055412 -0.042007 -0.041941 -0.000003 -0.000016 -0.000013 -0.000006 0.000011 -0.000006 -0.000015 -0.000001 -0.000003 -0.060085 -0.196776 0.638167 0.000013 -13.360758 0.000033 67.891438 -36.209367 53.343450 0.106940 0.021924 38.980859 -0.000042 0.000241 0.006181 -0.267871 -0.074398 0.023431 0.000006 -0.000009 -0.000027 -0.000022 0.000050 -0.000067 -0.000011 -0.000002 -0.000045 -0.271866 -0.006479 0.027054 -0.000005 -0.000018 -0.000048 -0.000008 -0.000001 -0.000038 -0.000003 -0.000020 0.000005 -0.257651 0.060955 0.018057 -0.000012 -0.000014 -0.000025 -0.000001 -0.000006 0.000013 -0.000006 -0.000001 0.000014 -0.239089 0.105269 -0.018169 0.000002 -0.000011 -0.000041 -0.000017 0.000011 -0.000024 0.000006 -0.000021 -0.000004 -0.055412 -0.042005 -0.041939 -0.000005 -0.000010 -0.000041 0.000026 -0.000011 0.000034 0.000037 -0.000066 0.000018 -0.319659 0.044710 0.210852 -24.976446 4.733526 -3.406493 27.171664 -0.000027 -0.000137 0.106983 -1.332168 2.788334 -5.359387 -0.000269 -0.000294 0.332259 -0.102248 0.113873 -35.805583 -20.840277 3.333579 14.261102 -0.000061 -0.000001 5.648714 -2.176426 5.192261 0.000003 -0.000022 -0.000019 
1.052373 1.084901 2.275424 6.529705 -13.657202 297.669889 0.000000 0.154692 0.259874 0.018664 0.007886 0.008325 -0.691560 1.941962 0.897083 -5.787602 5.014804 1.769036 0.000000 0.012377 0.661279 1.887015 0.638449 0.154629 0.152767 -1.853813 -0.056766 0.060086 -0.196775 0.638167 -0.000029 8.585239 0.000035 31.050306 32.313956 -35.641560 0.004542 -0.001916 1.594860 -0.001331 0.001936 -0.000975 0.267866 -0.074399 0.023428 0.000004 0.000006 -0.000019 -0.000006 -0.000001 -0.000011 -0.000002 -0.000008 0.000012 0.271865 -0.006477 0.027053 0.000003 0.000004 -0.000012 -0.000002 -0.000006 0.000015 0.000000 -0.000007 -0.000011 0.257650 0.060955 0.018055 -0.000001 0.000001 -0.000012 0.000001 0.000004 -0.000003 0.000003 -0.000004 -0.000003 0.239090 0.105268 -0.018169 -0.000000 -0.000011 -0.000021 -0.000005 0.000002 -0.000003 -0.000011 0.000008 -0.000007 0.055412 -0.042008 -0.041941 0.000003 -0.000019 -0.000019 -0.000009 0.000010 -0.000003 -0.000018 0.000006 -0.000004 -0.060085 -0.196776 0.638167 0.000019 -13.221473 0.000041 68.642254 -35.531488 54.773582 0.105642 0.021086 38.523606 -0.000043 0.000250 0.006396 -0.267871 -0.074398 0.023431 0.000009 -0.000008 -0.000028 -0.000022 0.000053 -0.000064 -0.000010 0.000001 -0.000046 -0.271866 -0.006479 0.027054 -0.000002 -0.000017 -0.000048 -0.000007 -0.000003 -0.000035 -0.000004 -0.000018 0.000001 -0.257650 0.060955 0.018057 -0.000008 -0.000014 -0.000026 -0.000002 -0.000007 0.000012 -0.000002 -0.000002 0.000014 -0.239089 0.105269 -0.018169 0.000002 -0.000012 -0.000044 -0.000013 0.000011 -0.000026 0.000006 -0.000024 -0.000007 -0.055412 -0.042005 -0.041939 -0.000003 -0.000009 -0.000038 0.000027 -0.000018 0.000045 0.000032 -0.000062 0.000015 -0.319660 0.044711 0.210852 -25.845895 5.165279 -3.469661 29.687721 -0.000031 -0.000141 0.701680 -0.093546 0.199794 -8.930753 -0.000258 -0.000298 0.332453 -0.104381 0.111430 -42.126746 -21.039033 2.454033 14.958799 -0.000062 -0.000004 4.184417 -1.952892 4.497639 0.000005 -0.000021 -0.000018 
